# xmcd
#
# Track frame offsets:
# 150
# 17891
# 37766
# 54954
# 71688
# 86291
# 103082
# 127651
# 152052
# 168305
#
# Disc length: 2540 seconds
#
# Revision: 0
# Processed by: cddbd v1.5.1PL0 Copyright (c) Steve Scherf et al.
# Submitted via: Audion 3.0.2 (http://www.panic.com/audion/)
#
DISCID=6d09ea0a
DTITLE=Jim Kweskin Band - Now  and Again
DYEAR=1900
DGENRE=
TTITLE0=Sweet Sue
TTITLE1=Why Don't You Do Right
TTITLE2=Linin' Track
TTITLE3=I'm Gonna Sit Right Down and Write Myself A Letter
TTITLE4=The Blues My Naughty Sweetie Gives To Me
TTITLE5=Exactly Like You
TTITLE6=Sugar In My Bowl
TTITLE7=Brother Can You Spare A Dime
TTITLE8=Trouble In Mind
TTITLE9=Cry Me  A River
EXTD=
EXTT0=
EXTT1=
EXTT2=
EXTT3=
EXTT4=
EXTT5=
EXTT6=
EXTT7=
EXTT8=
EXTT9=
PLAYORDER=
